<mxfile host="app.diagrams.net" modified="2023-11-14T23:30:49.321Z" agent="Mozilla/5.0 (Windows NT 10.0; Win64; x64) AppleWebKit/537.36 (KHTML, like Gecko) Chrome/118.0.0.0 Safari/537.36" etag="IzQGVuFGrps6cofcpVEf" version="22.1.1" type="device">
  <diagram name="Página-1" id="zrPFgIJTRH2Zh8fPzkow">
    <mxGraphModel dx="972" dy="740" grid="1" gridSize="10" guides="1" tooltips="1" connect="1" arrows="1" fold="1" page="1" pageScale="1" pageWidth="827" pageHeight="1169" math="0" shadow="0">
      <root>
        <mxCell id="0" />
        <mxCell id="1" parent="0" />
        <mxCell id="1hnuC0e--SxtvwfJnxqN-12" value="Usuario" style="swimlane;fontStyle=0;childLayout=stackLayout;horizontal=1;startSize=30;horizontalStack=0;resizeParent=1;resizeParentMax=0;resizeLast=0;collapsible=1;marginBottom=0;whiteSpace=wrap;html=1;" vertex="1" parent="1">
          <mxGeometry x="260" y="320" width="140" height="120" as="geometry" />
        </mxCell>
        <mxCell id="1hnuC0e--SxtvwfJnxqN-13" value="idUsuario: guid" style="text;strokeColor=none;fillColor=none;align=left;verticalAlign=middle;spacingLeft=4;spacingRight=4;overflow=hidden;points=[[0,0.5],[1,0.5]];portConstraint=eastwest;rotatable=0;whiteSpace=wrap;html=1;" vertex="1" parent="1hnuC0e--SxtvwfJnxqN-12">
          <mxGeometry y="30" width="140" height="30" as="geometry" />
        </mxCell>
        <mxCell id="1hnuC0e--SxtvwfJnxqN-14" value="email: string" style="text;strokeColor=none;fillColor=none;align=left;verticalAlign=middle;spacingLeft=4;spacingRight=4;overflow=hidden;points=[[0,0.5],[1,0.5]];portConstraint=eastwest;rotatable=0;whiteSpace=wrap;html=1;" vertex="1" parent="1hnuC0e--SxtvwfJnxqN-12">
          <mxGeometry y="60" width="140" height="30" as="geometry" />
        </mxCell>
        <mxCell id="1hnuC0e--SxtvwfJnxqN-15" value="celular: string" style="text;strokeColor=none;fillColor=none;align=left;verticalAlign=middle;spacingLeft=4;spacingRight=4;overflow=hidden;points=[[0,0.5],[1,0.5]];portConstraint=eastwest;rotatable=0;whiteSpace=wrap;html=1;" vertex="1" parent="1hnuC0e--SxtvwfJnxqN-12">
          <mxGeometry y="90" width="140" height="30" as="geometry" />
        </mxCell>
        <mxCell id="1hnuC0e--SxtvwfJnxqN-16" value="Paciente" style="swimlane;fontStyle=0;childLayout=stackLayout;horizontal=1;startSize=30;horizontalStack=0;resizeParent=1;resizeParentMax=0;resizeLast=0;collapsible=1;marginBottom=0;whiteSpace=wrap;html=1;" vertex="1" parent="1">
          <mxGeometry x="440" y="320" width="156" height="210" as="geometry" />
        </mxCell>
        <mxCell id="1hnuC0e--SxtvwfJnxqN-17" value="idPessoa: guid" style="text;strokeColor=none;fillColor=none;align=left;verticalAlign=middle;spacingLeft=4;spacingRight=4;overflow=hidden;points=[[0,0.5],[1,0.5]];portConstraint=eastwest;rotatable=0;whiteSpace=wrap;html=1;" vertex="1" parent="1hnuC0e--SxtvwfJnxqN-16">
          <mxGeometry y="30" width="156" height="30" as="geometry" />
        </mxCell>
        <mxCell id="1hnuC0e--SxtvwfJnxqN-18" value="idUsuario: guid" style="text;strokeColor=none;fillColor=none;align=left;verticalAlign=middle;spacingLeft=4;spacingRight=4;overflow=hidden;points=[[0,0.5],[1,0.5]];portConstraint=eastwest;rotatable=0;whiteSpace=wrap;html=1;" vertex="1" parent="1hnuC0e--SxtvwfJnxqN-16">
          <mxGeometry y="60" width="156" height="30" as="geometry" />
        </mxCell>
        <mxCell id="1hnuC0e--SxtvwfJnxqN-19" value="sexo: string" style="text;strokeColor=none;fillColor=none;align=left;verticalAlign=middle;spacingLeft=4;spacingRight=4;overflow=hidden;points=[[0,0.5],[1,0.5]];portConstraint=eastwest;rotatable=0;whiteSpace=wrap;html=1;" vertex="1" parent="1hnuC0e--SxtvwfJnxqN-16">
          <mxGeometry y="90" width="156" height="30" as="geometry" />
        </mxCell>
        <mxCell id="1hnuC0e--SxtvwfJnxqN-20" value="idade: string" style="text;strokeColor=none;fillColor=none;align=left;verticalAlign=middle;spacingLeft=4;spacingRight=4;overflow=hidden;points=[[0,0.5],[1,0.5]];portConstraint=eastwest;rotatable=0;whiteSpace=wrap;html=1;" vertex="1" parent="1hnuC0e--SxtvwfJnxqN-16">
          <mxGeometry y="120" width="156" height="30" as="geometry" />
        </mxCell>
        <mxCell id="1hnuC0e--SxtvwfJnxqN-21" value="nomeCompleto: string" style="text;strokeColor=none;fillColor=none;align=left;verticalAlign=middle;spacingLeft=4;spacingRight=4;overflow=hidden;points=[[0,0.5],[1,0.5]];portConstraint=eastwest;rotatable=0;whiteSpace=wrap;html=1;" vertex="1" parent="1hnuC0e--SxtvwfJnxqN-16">
          <mxGeometry y="150" width="156" height="30" as="geometry" />
        </mxCell>
        <mxCell id="1hnuC0e--SxtvwfJnxqN-23" value="Anotações medicas: string" style="text;strokeColor=none;fillColor=none;align=left;verticalAlign=middle;spacingLeft=4;spacingRight=4;overflow=hidden;points=[[0,0.5],[1,0.5]];portConstraint=eastwest;rotatable=0;whiteSpace=wrap;html=1;" vertex="1" parent="1hnuC0e--SxtvwfJnxqN-16">
          <mxGeometry y="180" width="156" height="30" as="geometry" />
        </mxCell>
        <mxCell id="1hnuC0e--SxtvwfJnxqN-24" style="edgeStyle=orthogonalEdgeStyle;rounded=0;orthogonalLoop=1;jettySize=auto;html=1;" edge="1" parent="1" source="1hnuC0e--SxtvwfJnxqN-13" target="1hnuC0e--SxtvwfJnxqN-18">
          <mxGeometry relative="1" as="geometry" />
        </mxCell>
        <mxCell id="1hnuC0e--SxtvwfJnxqN-36" value="TipoConsulta" style="swimlane;fontStyle=0;childLayout=stackLayout;horizontal=1;startSize=30;horizontalStack=0;resizeParent=1;resizeParentMax=0;resizeLast=0;collapsible=1;marginBottom=0;whiteSpace=wrap;html=1;" vertex="1" parent="1">
          <mxGeometry x="660" y="50" width="156" height="210" as="geometry" />
        </mxCell>
        <mxCell id="1hnuC0e--SxtvwfJnxqN-37" value="idTipoConsulta: guid" style="text;strokeColor=none;fillColor=none;align=left;verticalAlign=middle;spacingLeft=4;spacingRight=4;overflow=hidden;points=[[0,0.5],[1,0.5]];portConstraint=eastwest;rotatable=0;whiteSpace=wrap;html=1;" vertex="1" parent="1hnuC0e--SxtvwfJnxqN-36">
          <mxGeometry y="30" width="156" height="30" as="geometry" />
        </mxCell>
        <mxCell id="1hnuC0e--SxtvwfJnxqN-39" value="nome: string" style="text;strokeColor=none;fillColor=none;align=left;verticalAlign=middle;spacingLeft=4;spacingRight=4;overflow=hidden;points=[[0,0.5],[1,0.5]];portConstraint=eastwest;rotatable=0;whiteSpace=wrap;html=1;" vertex="1" parent="1hnuC0e--SxtvwfJnxqN-36">
          <mxGeometry y="60" width="156" height="30" as="geometry" />
        </mxCell>
        <mxCell id="1hnuC0e--SxtvwfJnxqN-40" value="frequencia: number" style="text;strokeColor=none;fillColor=none;align=left;verticalAlign=middle;spacingLeft=4;spacingRight=4;overflow=hidden;points=[[0,0.5],[1,0.5]];portConstraint=eastwest;rotatable=0;whiteSpace=wrap;html=1;" vertex="1" parent="1hnuC0e--SxtvwfJnxqN-36">
          <mxGeometry y="90" width="156" height="30" as="geometry" />
        </mxCell>
        <mxCell id="1hnuC0e--SxtvwfJnxqN-41" value="sexoPaciente: string || null" style="text;strokeColor=none;fillColor=none;align=left;verticalAlign=middle;spacingLeft=4;spacingRight=4;overflow=hidden;points=[[0,0.5],[1,0.5]];portConstraint=eastwest;rotatable=0;whiteSpace=wrap;html=1;" vertex="1" parent="1hnuC0e--SxtvwfJnxqN-36">
          <mxGeometry y="120" width="156" height="30" as="geometry" />
        </mxCell>
        <mxCell id="1hnuC0e--SxtvwfJnxqN-42" value="faixaEtariaMin: number" style="text;strokeColor=none;fillColor=none;align=left;verticalAlign=middle;spacingLeft=4;spacingRight=4;overflow=hidden;points=[[0,0.5],[1,0.5]];portConstraint=eastwest;rotatable=0;whiteSpace=wrap;html=1;" vertex="1" parent="1hnuC0e--SxtvwfJnxqN-36">
          <mxGeometry y="150" width="156" height="30" as="geometry" />
        </mxCell>
        <mxCell id="1hnuC0e--SxtvwfJnxqN-43" value="faixaEtariaMax: number" style="text;strokeColor=none;fillColor=none;align=left;verticalAlign=middle;spacingLeft=4;spacingRight=4;overflow=hidden;points=[[0,0.5],[1,0.5]];portConstraint=eastwest;rotatable=0;whiteSpace=wrap;html=1;" vertex="1" parent="1hnuC0e--SxtvwfJnxqN-36">
          <mxGeometry y="180" width="156" height="30" as="geometry" />
        </mxCell>
        <mxCell id="1hnuC0e--SxtvwfJnxqN-44" value="Consulta" style="swimlane;fontStyle=0;childLayout=stackLayout;horizontal=1;startSize=30;horizontalStack=0;resizeParent=1;resizeParentMax=0;resizeLast=0;collapsible=1;marginBottom=0;whiteSpace=wrap;html=1;" vertex="1" parent="1">
          <mxGeometry x="660" y="320" width="156" height="240" as="geometry" />
        </mxCell>
        <mxCell id="1hnuC0e--SxtvwfJnxqN-45" value="idConsulta: guid" style="text;strokeColor=none;fillColor=none;align=left;verticalAlign=middle;spacingLeft=4;spacingRight=4;overflow=hidden;points=[[0,0.5],[1,0.5]];portConstraint=eastwest;rotatable=0;whiteSpace=wrap;html=1;" vertex="1" parent="1hnuC0e--SxtvwfJnxqN-44">
          <mxGeometry y="30" width="156" height="30" as="geometry" />
        </mxCell>
        <mxCell id="1hnuC0e--SxtvwfJnxqN-46" value="idPessoa: guid" style="text;strokeColor=none;fillColor=none;align=left;verticalAlign=middle;spacingLeft=4;spacingRight=4;overflow=hidden;points=[[0,0.5],[1,0.5]];portConstraint=eastwest;rotatable=0;whiteSpace=wrap;html=1;" vertex="1" parent="1hnuC0e--SxtvwfJnxqN-44">
          <mxGeometry y="60" width="156" height="30" as="geometry" />
        </mxCell>
        <mxCell id="1hnuC0e--SxtvwfJnxqN-47" value="idTipoConsulta: guid" style="text;strokeColor=none;fillColor=none;align=left;verticalAlign=middle;spacingLeft=4;spacingRight=4;overflow=hidden;points=[[0,0.5],[1,0.5]];portConstraint=eastwest;rotatable=0;whiteSpace=wrap;html=1;" vertex="1" parent="1hnuC0e--SxtvwfJnxqN-44">
          <mxGeometry y="90" width="156" height="30" as="geometry" />
        </mxCell>
        <mxCell id="1hnuC0e--SxtvwfJnxqN-48" value="doutor: string" style="text;strokeColor=none;fillColor=none;align=left;verticalAlign=middle;spacingLeft=4;spacingRight=4;overflow=hidden;points=[[0,0.5],[1,0.5]];portConstraint=eastwest;rotatable=0;whiteSpace=wrap;html=1;" vertex="1" parent="1hnuC0e--SxtvwfJnxqN-44">
          <mxGeometry y="120" width="156" height="30" as="geometry" />
        </mxCell>
        <mxCell id="1hnuC0e--SxtvwfJnxqN-55" value="Hospital: string" style="text;strokeColor=none;fillColor=none;align=left;verticalAlign=middle;spacingLeft=4;spacingRight=4;overflow=hidden;points=[[0,0.5],[1,0.5]];portConstraint=eastwest;rotatable=0;whiteSpace=wrap;html=1;" vertex="1" parent="1hnuC0e--SxtvwfJnxqN-44">
          <mxGeometry y="150" width="156" height="30" as="geometry" />
        </mxCell>
        <mxCell id="1hnuC0e--SxtvwfJnxqN-56" value="Endereço: string" style="text;strokeColor=none;fillColor=none;align=left;verticalAlign=middle;spacingLeft=4;spacingRight=4;overflow=hidden;points=[[0,0.5],[1,0.5]];portConstraint=eastwest;rotatable=0;whiteSpace=wrap;html=1;" vertex="1" parent="1hnuC0e--SxtvwfJnxqN-44">
          <mxGeometry y="180" width="156" height="30" as="geometry" />
        </mxCell>
        <mxCell id="1hnuC0e--SxtvwfJnxqN-54" value="dataAgendada: Date" style="text;strokeColor=none;fillColor=none;align=left;verticalAlign=middle;spacingLeft=4;spacingRight=4;overflow=hidden;points=[[0,0.5],[1,0.5]];portConstraint=eastwest;rotatable=0;whiteSpace=wrap;html=1;" vertex="1" parent="1hnuC0e--SxtvwfJnxqN-44">
          <mxGeometry y="210" width="156" height="30" as="geometry" />
        </mxCell>
        <mxCell id="1hnuC0e--SxtvwfJnxqN-51" style="edgeStyle=orthogonalEdgeStyle;rounded=0;orthogonalLoop=1;jettySize=auto;html=1;" edge="1" parent="1" source="1hnuC0e--SxtvwfJnxqN-17" target="1hnuC0e--SxtvwfJnxqN-46">
          <mxGeometry relative="1" as="geometry" />
        </mxCell>
        <mxCell id="1hnuC0e--SxtvwfJnxqN-53" style="edgeStyle=orthogonalEdgeStyle;rounded=0;orthogonalLoop=1;jettySize=auto;html=1;entryX=0;entryY=0.5;entryDx=0;entryDy=0;" edge="1" parent="1" source="1hnuC0e--SxtvwfJnxqN-37" target="1hnuC0e--SxtvwfJnxqN-47">
          <mxGeometry relative="1" as="geometry" />
        </mxCell>
      </root>
    </mxGraphModel>
  </diagram>
</mxfile>
